<?xml version="1.0" encoding="UTF-8"?>
<svg id="_Слой_1" data-name="Слой 1" xmlns="http://www.w3.org/2000/svg" viewBox="0 0 1300 550">
  <defs>
    <style>
      .cls-1, .cls-2 {
        fill: #000;
        stroke-width: 0px;
      }

      .cls-2 {
        fill-rule: evenodd;
      }
    </style>
  </defs>
  <path class="cls-1" d="M62.88,295.72v30.54c0,12.81-10.38,23.19-23.19,23.19h-13.42c-5.4,0-9.77,4.38-9.77,9.78s4.38,9.77,9.77,9.77h1247.46c5.39,0,9.77-4.38,9.77-9.77s-4.38-9.77-9.77-9.77h-10.5c-6.45,0-12.51-3.07-16.33-8.26l-147.16-199.97c-4.2-5.7-12.84-5.36-16.56.67l-72.21,116.8c-5.3,8.57-18.51,4.81-18.51-5.26v-115.13c0-4.97-4.03-9-9-9h-27.75c-4.97,0-9,4.03-9,9v143.4c0,10.13-13.34,13.84-18.57,5.16l-59.39-98.61c-3.49-5.79-11.86-5.85-15.43-.11l-75.39,121.14c-7.18,11.54-24.99,6.45-24.99-7.14v-3.01c0-5.8,4.71-10.51,10.51-10.51,7.08,0,12.13-6.85,10.04-13.61l-1.03-3.32c-2.15-6.97,1.81-14.35,8.81-16.41l7.67-2.25c14.07-4.13,19.66-21.06,10.81-32.75l-3.34-4.41c-6.11-8.07-6.64-19.14-1.41-27.81,10.08-16.74-1.84-38.3-21.39-38.3-8.82,0-17-4.63-21.54-12.2l-1.23-2.05c-11.44-19.07-39.12-18.98-50.43.18l-4.7,7.96c-2.38,4.03-5.54,7.54-9.31,10.31l-6.9,5.09c-12.72,9.39-16.27,26.88-8.22,40.48,5.27,8.91,5.72,19.86,1.19,29.17l-1.27,2.62c-9.68,19.91,3.5,43.36,25.54,45.43,16.29,1.54,28.73,15.21,28.73,31.57v4.48c0,20.23-16.65,36.63-36.88,36.63s-37.4-16.63-37.4-37.14v-129.38c0-15.09-12.16-27.37-27.25-27.52l-8.5-.08c-10.38-.1-18.74-8.55-18.74-18.93s-8.48-18.93-18.93-18.93h-53.09c-10.46,0-18.94,8.48-18.94,18.94s-8.35,18.83-18.73,18.94l-5.89.06c-13.64.15-24.62,11.25-24.62,24.9v165.66c0,1.92-1.56,3.48-3.48,3.48-1.73,0-3.2-1.28-3.45-2.99l-5.08-35.96v-54.59c0-9.28-2.16-18.45-6.3-26.76-4.13-8.31-6.3-17.48-6.3-26.76v-25c0-2.59.65-5.15,1.88-7.43,3.08-5.69,2.33-12.68-1.88-17.59l-16.92-19.7c-.38-.44-.58-1-.58-1.58v-1.55c0-1.42,1.65-2.2,2.75-1.3l.75.61c.8.65,2,.08,2-.95,0-.38-.17-.73-.47-.96l-2.28-1.79c-1.74-1.36-2.75-3.45-2.75-5.66v-2.95c0-2.62,2.13-4.75,4.75-4.75h3.35c.77,0,1.4-.63,1.4-1.4s-.63-1.4-1.4-1.4h-5.35c-1.52,0-2.75-1.23-2.75-2.75s1.23-2.75,2.75-2.75h1.25c.83,0,1.5-.67,1.5-1.5s-.67-1.5-1.5-1.5h-1.25c-1.52,0-2.75-1.23-2.75-2.75v-1.75c0-.83-.67-1.5-1.5-1.5s-1.5.67-1.5,1.5v1.75c0,1.52-1.23,2.75-2.75,2.75h-1.25c-.83,0-1.5.67-1.5,1.5s.67,1.5,1.5,1.5h1.25c1.52,0,2.75,1.23,2.75,2.75s-1.23,2.75-2.75,2.75h-4.85c-.77,0-1.4.63-1.4,1.4s.63,1.4,1.4,1.4h4.5c1.71,0,3.1,1.39,3.1,3.1v2.57c0,1.41-1.59,2.24-2.75,1.44l-.8-.56c-.82-.57-1.95.02-1.95,1.02,0,.4.19.77.51,1l2.24,1.63c1.73,1.26,2.75,3.26,2.75,5.4v1.26c0,2.16-.76,4.24-2.15,5.89l-14.96,17.78c-4.16,4.94-4.87,11.93-1.79,17.61,1.25,2.3,1.9,4.87,1.9,7.49v35.57c0,1.93-1.57,3.5-3.5,3.5s-3.5-1.57-3.5-3.5v-60.71c0-2.84.51-5.65,1.51-8.31,2.8-7.48,1.65-15.86-3.08-22.3l-28.61-38.98c-.53-.73-.82-1.6-.82-2.5v-6.31c0-1.44,1.73-2.15,2.75-1.14,1.01,1.01,2.75.3,2.75-1.14v-.35c0-.49-.2-.95-.56-1.28l-2.19-2.05c-1.75-1.64-2.75-3.94-2.75-6.34v-6.84c0-2.9,2.35-5.25,5.25-5.25h3.5c.97,0,1.75-.78,1.75-1.75s-.78-1.75-1.75-1.75h-4.5c-2.35,0-4.25-1.9-4.25-4.25v-1.5c0-1.52,1.23-2.75,2.75-2.75h1c.97,0,1.75-.78,1.75-1.75s-.78-1.75-1.75-1.75h-1c-1.52,0-2.75-1.23-2.75-2.75v-3c0-.97-.78-1.75-1.75-1.75s-1.75.78-1.75,1.75v2.5c0,1.79-1.46,3.25-3.25,3.25h-1.5c-.97,0-1.75.78-1.75,1.75s.78,1.75,1.75,1.75h1.5c1.79,0,3.25,1.46,3.25,3.25v1c0,2.35-1.9,4.25-4.25,4.25h-5c-.97,0-1.75.78-1.75,1.75s.78,1.75,1.75,1.75h5.16c2.26,0,4.09,1.83,4.09,4.09v4.62c0,1.68-1.97,2.59-3.25,1.49l-.39-.33c-1.12-.97-2.86-.17-2.86,1.32,0,.51.22.99.61,1.32l2.64,2.23c2.06,1.74,3.25,4.31,3.25,7.01v4.11c0,4.03-1.35,7.95-3.84,11.12l-27.68,35.33c-4.91,6.27-5.99,14.73-2.79,22.03,1.2,2.74,1.82,5.69,1.82,8.68v60.47c0,1.93-1.57,3.5-3.5,3.5s-3.5-1.57-3.5-3.5v-35.57c0-2.62.65-5.19,1.9-7.49,3.08-5.68,2.37-12.66-1.79-17.61l-16.59-19.72c-.33-.39-.51-.89-.51-1.41v-1.15c0-1.29,1.45-2.04,2.5-1.3l.55.39c.82.57,1.95-.01,1.95-1.01,0-.39-.19-.76-.51-1l-1.99-1.46c-1.57-1.15-2.5-2.98-2.5-4.93v-4.48c0-2.35,1.9-4.25,4.25-4.25h2.75c.83,0,1.5-.67,1.5-1.5s-.67-1.5-1.5-1.5h-4.25c-1.52,0-2.75-1.23-2.75-2.75v-.25c0-1.38,1.12-2.5,2.5-2.5h1c.83,0,1.5-.67,1.5-1.5s-.67-1.5-1.5-1.5h-1c-1.38,0-2.5-1.12-2.5-2.5v-2c0-.83-.67-1.5-1.5-1.5s-1.5.67-1.5,1.5v2c0,1.38-1.12,2.5-2.5,2.5h-1c-.83,0-1.5.67-1.5,1.5s.67,1.5,1.5,1.5h1c1.38,0,2.5,1.12,2.5,2.5v.25c0,1.52-1.23,2.75-2.75,2.75h-4.25c-.83,0-1.5.67-1.5,1.5s.67,1.5,1.5,1.5h3.68c1.83,0,3.32,1.49,3.32,3.32v2.67c0,1.54-1.73,2.45-3,1.58l-1.07-.74c-.82-.56-1.93.02-1.93,1.01,0,.41.2.8.55,1.02l2.45,1.63c1.87,1.25,3,3.35,3,5.61v.83c0,1.98-.71,3.89-2,5.4l-15.55,18.11c-4.21,4.9-5.06,11.85-2.15,17.61,1.12,2.23,1.71,4.69,1.71,7.19v25.25c0,9.22-2.17,18.4-6.25,26.66-4.08,8.26-6.25,17.45-6.25,26.66v51.15c0,2.36-.2,4.71-.59,7.03l-3.65,21.74c-1.33,7.92-8.18,13.72-16.22,13.72-9.08,0-16.44-7.36-16.44-16.44v-37.5c0-5.21,4.79-9.11,9.9-8.04,5.76,1.2,10.88-3.86,9.74-9.64l-1.18-5.99c-.87-4.4,1.13-8.86,5-11.14l5.46-3.22c5.72-3.37,4.78-11.91-1.54-13.96-3.18-1.03-5.33-3.99-5.33-7.33v-6.09c0-12.07-12.81-19.83-23.51-14.24l-4.63,2.42c-5.02,2.62-10.95,2.9-16.19.75l-3.86-1.58c-6.66-2.72-14.31-.21-18.05,5.93l-.21.35c-3.82,6.26-2.24,14.41,3.65,18.79,5.01,3.72,7,10.29,4.9,16.17l-2.18,6.1c-2.77,7.76,3.49,15.76,11.68,14.93,6.6-.66,12.34,4.53,12.34,11.16v31.91c0,14.71-11.93,26.64-26.64,26.64s-26.64-11.93-26.64-26.64v-27.37c0-5.54,4.49-10.04,10.04-10.04,9.72,0,13.77-12.44,5.9-18.16l-46.98-34.17c-10.07-7.32-23.7-7.38-33.83-.14l-47.25,33.75c-8.17,5.84-4.04,18.72,6,18.72,5.7,0,10.32,4.62,10.32,10.32Z"/>
  <path class="cls-2" d="M225,451.48c0,10.83-2.1,19.97-6.31,27.41-4.21,7.41-9.88,13.03-17.03,16.86-7.15,3.8-15.11,5.7-23.9,5.7s-16.85-1.92-24-5.75c-7.11-3.86-12.77-9.5-16.98-16.91-4.17-7.44-6.26-16.55-6.26-27.32s2.09-19.95,6.26-27.36c4.21-7.44,9.87-13.07,16.98-16.87,7.14-3.83,15.14-5.75,24-5.75s16.76,1.92,23.9,5.75c7.14,3.8,12.82,9.42,17.03,16.87,4.2,7.41,6.31,16.53,6.31,27.36ZM197.87,451.48c0-5.83-.77-10.74-2.32-14.73-1.52-4.02-3.78-7.06-6.78-9.12-2.97-2.09-6.64-3.14-11-3.14s-8.05,1.05-11.05,3.14c-2.97,2.06-5.23,5.1-6.78,9.12-1.52,3.99-2.28,8.9-2.28,14.73s.76,10.75,2.28,14.77c1.55,3.99,3.81,7.03,6.78,9.12,3,2.06,6.69,3.09,11.05,3.09s8.03-1.03,11-3.09c3-2.09,5.26-5.13,6.78-9.12,1.55-4.02,2.32-8.95,2.32-14.77Z"/>
  <path class="cls-2" d="M506.99,478.89c4.2-7.44,6.31-16.58,6.31-27.41s-2.1-19.95-6.31-27.36c-4.21-7.44-9.88-13.07-17.03-16.87-7.15-3.83-15.11-5.75-23.9-5.75s-16.85,1.92-24,5.75c-7.11,3.8-12.77,9.42-16.98,16.87-4.17,7.41-6.26,16.53-6.26,27.36s2.09,19.87,6.26,27.32c4.2,7.41,9.86,13.05,16.98,16.91,7.14,3.83,15.14,5.75,24,5.75s16.76-1.9,23.9-5.7c7.14-3.83,12.82-9.45,17.03-16.86ZM483.84,436.75c1.55,3.99,2.32,8.9,2.32,14.73s-.77,10.75-2.32,14.77c-1.52,3.99-3.78,7.03-6.78,9.12-2.97,2.06-6.64,3.09-11,3.09s-8.05-1.03-11.05-3.09c-2.97-2.09-5.23-5.13-6.78-9.12-1.52-4.02-2.28-8.95-2.28-14.77s.76-10.74,2.28-14.73c1.55-4.02,3.81-7.06,6.78-9.12,3-2.09,6.69-3.14,11.05-3.14s8.03,1.05,11,3.14c3,2.06,5.26,5.1,6.78,9.12Z"/>
  <path class="cls-2" d="M692.18,478.89c4.21-7.44,6.31-16.58,6.31-27.41s-2.1-19.95-6.31-27.36c-4.2-7.44-9.88-13.07-17.03-16.87-7.14-3.83-15.11-5.75-23.9-5.75s-16.85,1.92-24,5.75c-7.11,3.8-12.77,9.42-16.98,16.87-4.17,7.41-6.26,16.53-6.26,27.36s2.09,19.87,6.26,27.32c4.2,7.41,9.86,13.05,16.98,16.91,7.15,3.83,15.15,5.75,24,5.75s16.76-1.9,23.9-5.7c7.15-3.83,12.82-9.45,17.03-16.86ZM669.04,436.75c1.55,3.99,2.32,8.9,2.32,14.73s-.77,10.75-2.32,14.77c-1.52,3.99-3.78,7.03-6.78,9.12-2.97,2.06-6.64,3.09-11,3.09s-8.05-1.03-11.05-3.09c-2.97-2.09-5.23-5.13-6.78-9.12-1.52-4.02-2.28-8.95-2.28-14.77s.76-10.74,2.28-14.73c1.55-4.02,3.81-7.06,6.78-9.12,3-2.09,6.69-3.14,11.05-3.14s8.03,1.05,11,3.14c3,2.06,5.26,5.1,6.78,9.12Z"/>
  <path class="cls-2" d="M999.43,451.48c0,10.83-2.1,19.97-6.31,27.41-4.21,7.41-9.88,13.03-17.03,16.86-7.15,3.8-15.11,5.7-23.9,5.7s-16.85-1.92-24-5.75c-7.11-3.86-12.77-9.5-16.98-16.91-4.17-7.44-6.26-16.55-6.26-27.32s2.09-19.95,6.26-27.36c4.21-7.44,9.86-13.07,16.98-16.87,7.15-3.83,15.14-5.75,24-5.75s16.76,1.92,23.9,5.75c7.15,3.8,12.82,9.42,17.03,16.87,4.2,7.41,6.31,16.53,6.31,27.36ZM972.31,451.48c0-5.83-.78-10.74-2.32-14.73-1.52-4.02-3.78-7.06-6.78-9.12-2.97-2.09-6.64-3.14-11-3.14s-8.05,1.05-11.05,3.14c-2.97,2.06-5.23,5.1-6.78,9.12-1.52,3.99-2.28,8.9-2.28,14.73s.76,10.75,2.28,14.77c1.55,3.99,3.81,7.03,6.78,9.12,3,2.06,6.69,3.09,11.05,3.09s8.03-1.03,11-3.09c3-2.09,5.26-5.13,6.78-9.12,1.55-4.02,2.32-8.95,2.32-14.77Z"/>
  <path class="cls-2" d="M1049.92,402.83c-19.67,0-35.61,15.97-35.61,35.68v25.95c0,19.7,15.94,35.68,35.61,35.68h10.11c7.05,0,13.12-1.19,18.21-3.56s9.01-5.64,11.76-9.79c2.78-4.15,4.17-8.88,4.17-14.2,0-4.59-1.01-8.58-3.03-11.97-2.03-3.42-4.74-6.1-8.16-8.03-3.27-1.88-6.9-2.94-10.87-3.16-.29-.02-.51-.25-.51-.54,0-.25.18-.47.42-.53,3.59-.77,6.74-2.11,9.44-4,2.82-1.99,5-4.47,6.55-7.41,1.58-2.95,2.37-6.21,2.37-9.79,0-4.94-1.3-9.23-3.89-12.87-2.56-3.64-6.37-6.46-11.43-8.46-5.03-1.99-11.24-2.99-18.64-2.99h-6.5ZM1053.01,479.03h-2.09c-5.66,0-10.24-4.6-10.24-10.26s4.58-10.26,10.24-10.26h2.47c2.68,0,4.98.41,6.87,1.24,1.93.82,3.42,2.03,4.46,3.61,1.04,1.58,1.57,3.52,1.57,5.8,0,3.26-1.11,5.73-3.32,7.41-2.22,1.65-5.54,2.47-9.96,2.47ZM1051.49,442.17h-1.52c-5.13,0-9.29-4.17-9.29-9.31s4.16-9.31,9.29-9.31h1.9c3.29,0,6.01.81,8.16,2.42,2.15,1.58,3.22,3.88,3.22,6.89,0,1.99-.51,3.69-1.52,5.08-.98,1.36-2.35,2.41-4.12,3.14s-3.81,1.09-6.12,1.09Z"/>
  <path class="cls-1" d="M1172.52,500.13c-4.08,0-7.93-1.92-10.4-5.17l-25.12-33.18c-.47-.62-1.2-.98-1.97-.98-1.37,0-2.47,1.11-2.47,2.48v23.65c0,7.29-5.91,13.21-13.19,13.21s-13.18-5.91-13.18-13.21v-70.88c0-7.29,5.9-13.21,13.18-13.21s13.19,5.91,13.19,13.21v21.18c0,1.26,1.02,2.29,2.28,2.29.71,0,1.38-.33,1.82-.9l23.31-30.66c2.45-3.22,6.26-5.11,10.3-5.11,10.83,0,16.88,12.53,10.15,21.03l-10.19,12.88c-5.97,7.54-6.03,18.19-.15,25.8l12.76,16.51c6.65,8.59.53,21.08-10.32,21.08Z"/>
  <path class="cls-1" d="M803.11,479.41c-1.52.22-2.66,1.52-2.66,3.07v11.18c0,3.57,2.89,6.46,6.45,6.46,8.22,0,14.84-1.49,19.87-4.47,5.03-2.98,8.77-7.84,11.24-14.58,2.47-6.75,3.98-15.79,4.55-27.13l1.02-20.51c.28-5.65,4.93-10.09,10.58-10.09s10.6,4.75,10.6,10.61v53.43c0,7.03,5.69,12.73,12.71,12.73s12.71-5.7,12.71-12.73v-48.89c0-19.7-16.18-35.68-35.84-35.68s-35.1,15.18-35.81,34.35l-.24,6.51c-.32,8.68-1.06,15.53-2.23,20.57-1.14,5-2.78,8.66-4.93,10.97-2.12,2.28-4.79,3.67-8.02,4.18Z"/>
  <path class="cls-2" d="M726.55,500.13c-7.28,0-13.18-5.91-13.18-13.21v-48.41c0-19.7,15.95-35.68,35.61-35.68h6.31c7.21,0,13.52,1.43,18.92,4.28,5.41,2.85,9.61,6.86,12.62,12.02,3,5.16,4.5,11.2,4.5,18.1s-1.55,13-4.65,18.1c-3.07,5.1-7.38,9.03-12.95,11.78-5.53,2.76-12,4.13-19.4,4.13h-.19c-7.96,0-14.42,6.47-14.42,14.44v1.24c0,7.29-5.9,13.21-13.18,13.21ZM739.73,441.41c0,5.14,4.16,9.31,9.3,9.31,3.1,0,5.74-.54,7.92-1.61,2.21-1.11,3.91-2.68,5.08-4.7,1.2-2.03,1.8-4.42,1.8-7.17s-.6-5.16-1.8-7.13c-1.17-2-2.86-3.52-5.08-4.56-2.18-1.08-4.82-1.61-7.92-1.61-5.13,0-9.3,4.17-9.3,9.31v8.17Z"/>
  <path class="cls-1" d="M585.84,402.83c5.87,0,10.62,4.77,10.62,10.64s-4.76,10.64-10.62,10.64h-10.34c-11.58,0-20.96,9.4-20.96,21v41.81c0,7.29-5.9,13.21-13.18,13.21s-13.18-5.91-13.18-13.21v-49.88c0-18.89,15.29-34.21,34.15-34.21h23.52Z"/>
  <path class="cls-2" d="M342.07,500.13c-7.28,0-13.18-5.91-13.18-13.21v-48.41c0-19.7,15.95-35.68,35.61-35.68h6.31c7.21,0,13.52,1.43,18.92,4.28,5.41,2.85,9.61,6.86,12.62,12.02,3,5.16,4.51,11.2,4.51,18.1s-1.55,13-4.65,18.1c-3.07,5.1-7.38,9.03-12.95,11.78-5.53,2.76-12,4.13-19.4,4.13h-.19c-7.96,0-14.42,6.47-14.42,14.44v1.24c0,7.29-5.9,13.21-13.18,13.21ZM355.25,441.41c0,5.14,4.16,9.31,9.3,9.31,3.1,0,5.74-.54,7.92-1.61,2.21-1.11,3.9-2.68,5.07-4.7,1.2-2.03,1.8-4.42,1.8-7.17s-.6-5.16-1.8-7.13c-1.17-2-2.86-3.52-5.07-4.56-2.18-1.08-4.82-1.61-7.92-1.61-5.13,0-9.3,4.17-9.3,9.31v8.17Z"/>
  <path class="cls-2" d="M274.02,402.83c-18.86,0-34.15,15.32-34.15,34.21v27.41c0,19.7,15.95,35.68,35.62,35.68h.62c8.16,0,15.29-1.38,21.39-4.13,6.13-2.76,10.89-6.59,14.28-11.5,3.41-4.91,5.12-10.59,5.12-17.05s-1.71-12.08-5.12-16.87c-3.38-4.78-8.14-8.49-14.28-11.12-6.1-2.63-13.23-3.94-21.39-3.94h-4.17c-3.14,0-5.69-2.55-5.69-5.7s2.55-5.7,5.69-5.7h25.61c5.87,0,10.62-4.77,10.62-10.64s-4.76-10.64-10.62-10.64h-23.52ZM276.11,479.41c-5.45,0-9.86-4.42-9.86-9.88v-3.99c0-5.46,4.42-9.88,9.86-9.88,4.74,0,8.36,1.11,10.86,3.33,2.5,2.19,3.75,4.94,3.75,8.27,0,2.34-.57,4.43-1.71,6.27-1.11,1.84-2.75,3.28-4.93,4.32-2.15,1.05-4.81,1.57-7.97,1.57Z"/>
  <path class="cls-2" d="M21.83,479.79c-2.94,0-5.33,2.39-5.33,5.34v25.64c0,7.03,5.69,12.73,12.71,12.73h1.04c6.44,0,11.67-5.23,11.67-11.69s5.22-11.69,11.67-11.69h28.65c6.44,0,11.67,5.23,11.67,11.69s5.22,11.69,11.67,11.69h1.04c7.02,0,12.71-5.7,12.71-12.73v-25.84c0-2.83-2.29-5.13-5.12-5.13s-5.12-2.3-5.12-5.13v-36.16c0-19.7-16.01-35.68-35.68-35.68-18.59,0-34.11,14.32-35.57,32.89l-.65,8.35c-.63,7.92-1.61,14.24-2.94,18.96-1.3,4.72-2.88,8.35-4.74,10.88-1.49,2.06-3.13,3.75-4.92,5.05-.79.58-1.76.84-2.75.84ZM83.66,468.74c0,6.1-4.94,11.05-11.03,11.05h-9.78c-4.15,0-6.9-4.6-5.46-8.5,1.23-3.29,2.29-7.16,3.18-11.59.92-4.47,1.6-9.68,2.04-15.63l.8-10.57c.4-5.3,4.81-9.39,10.11-9.39,5.6,0,10.14,4.55,10.14,10.16v34.47Z"/>
  <path class="cls-2" d="M1219.73,490.82c-1.67,5.53-6.83,9.31-12.6,9.31-9.12,0-15.72-8.94-12.86-17.61l20.61-62.54c3.37-10.23,12.91-17.14,23.67-17.14s20.3,6.91,23.67,17.14l20.61,62.54c2.85,8.67-3.75,17.61-12.87,17.61-5.76,0-10.93-3.78-12.59-9.31-1.67-5.53-6.75-9.31-12.52-9.31h-12.61c-5.76,0-10.85,3.78-12.51,9.31ZM1238.55,429.62c.22,0,.42.15.49.36l6.66,22.11c1.45,4.8-2.14,9.64-7.15,9.64s-8.6-4.84-7.15-9.64l6.66-22.11c.06-.22.26-.36.49-.36Z"/>
</svg>